<svg preserveAspectRatio="none" width="100%" height="100%" overflow="visible" style="display: block;" viewBox="0 0 104.818 31.8408" fill="none" xmlns="http://www.w3.org/2000/svg">
<path id="Bees_-_E_Alligned_-_Logo_2_" d="M49.6039 6.94556e-08C50.4205 6.94556e-08 51.0825 0.662082 51.0825 1.47862V6.48145C51.0825 7.29817 50.4205 7.96006 49.6039 7.96006H28.5241V1.47861C28.5241 0.66205 29.1862 6.94556e-08 30.0027 6.94556e-08H49.6039ZM49.6039 23.8806H28.5241V30.3622C28.5241 31.1787 29.1862 31.8408 30.0027 31.8408H49.6039C50.4205 31.8408 51.0825 31.1787 51.0825 30.3622V25.3592C51.0825 24.5426 50.4204 23.8806 49.6039 23.8806ZM47.1047 18.4219V13.4189C47.1047 12.6022 46.4427 11.9403 45.6261 11.9403H28.5265V19.9005H45.6261C46.4427 19.9005 47.1047 19.2384 47.1047 18.4219ZM76.1424 1.59899e-05H56.5413C55.7247 1.59899e-05 55.0626 0.662082 55.0626 1.47862V7.96007H76.1424C76.959 7.96007 77.621 7.29818 77.621 6.48147V1.47864C77.621 0.662066 76.959 1.59899e-05 76.1424 1.59899e-05ZM76.1424 23.8806H55.0626V30.3622C55.0626 31.1787 55.7247 31.8408 56.5412 31.8408H76.1424C76.959 31.8408 77.621 31.1787 77.621 30.3622V25.3592C77.621 24.5426 76.959 23.8806 76.1424 23.8806ZM73.6407 18.4219V13.4189C73.6407 12.6022 72.9786 11.9403 72.1621 11.9403H55.0624V19.9005H72.1621C72.9787 19.9005 73.6407 19.2384 73.6407 18.4219ZM0 30.362C0 31.1788 0.66205 31.8407 1.47861 31.8407H14.7936C19.6073 31.8407 23.6222 28.4222 24.544 23.8804H0V30.362ZM81.6011 25.3592V30.362C81.6011 31.1787 82.2632 31.8408 83.0797 31.8408H95.0681C99.8818 31.8408 103.897 28.4222 104.818 23.8806H83.0797C82.2632 23.8806 81.6011 24.5426 81.6011 25.3592ZM103.34 1.59899e-05H90.6879C85.8742 1.59899e-05 81.8593 3.4186 80.9376 7.96007H103.34C104.156 7.96007 104.818 7.29818 104.818 6.48162V1.47862C104.818 0.662066 104.156 1.59899e-05 103.34 1.59899e-05ZM14.7936 11.9403H6.36816e-05V19.9005H24.5439C23.6222 15.3588 19.6073 11.9403 14.7936 11.9403ZM95.0683 11.9414L80.9378 11.9402C81.86 16.4814 85.8745 19.8993 90.6878 19.8993L104.818 19.9005C103.896 15.3593 99.8815 11.9414 95.0683 11.9414ZM12.698 0.00214932L1.47881 3.47209e-08C0.662098 -0.000175055 3.18408e-05 0.661875 3.18408e-05 1.47878V7.95956H20.5618C20.5618 3.59577 17.0495 0.0538269 12.698 0.00214932Z" fill="var(--fill-0, #141414)"/>
</svg>
